<svg width="29" height="26" viewBox="0 0 29 26" fill="none" xmlns="http://www.w3.org/2000/svg">
<path d="M7.06877 12C8.18477 12 9.19138 11.4053 9.88092 10.56C10.9557 9.23949 12.305 8.14958 13.8423 7.36C14.8434 6.848 15.7115 6.08533 16.1311 5.07333C16.4257 4.36433 16.577 3.60767 16.5769 2.844V2C16.5769 1.73478 16.6863 1.48043 16.8811 1.29289C17.0758 1.10536 17.34 1 17.6154 1C18.4416 1 19.234 1.31607 19.8183 1.87868C20.4025 2.44129 20.7308 3.20435 20.7308 4C20.7308 5.536 20.3708 6.99067 19.7297 8.29067C19.3614 9.03467 19.8778 10 20.7335 10M20.7335 10H25.0618C26.4824 10 27.7549 10.9253 27.9058 12.2867C27.9681 12.8493 28 13.42 28 14C28.0057 17.6485 26.711 21.1883 24.3321 24.028C23.7949 24.6707 22.9655 25 22.1098 25H16.5492C15.8805 25 15.2145 24.896 14.5789 24.6933L10.2672 23.3067C9.63183 23.1032 8.96653 22.9996 8.29692 23H6.05938M20.7335 10H17.6154M6.05938 23C6.17431 23.2733 6.29892 23.54 6.43323 23.8027C6.706 24.336 6.32523 25 5.70908 25H4.45185C3.22093 25 2.08 24.3093 1.72139 23.176C1.24182 21.6603 0.998705 20.0845 1.00001 18.5C1.00001 16.4293 1.40847 14.452 2.15062 12.636C2.57431 11.604 3.65431 11 4.80769 11H6.26569C6.91923 11 7.29723 11.7413 6.958 12.28C5.77539 14.1546 5.15167 16.3066 5.15523 18.5C5.15523 20.092 5.47646 21.6107 6.06077 23H6.05938Z" stroke="#732E1F" stroke-width="1.5" stroke-linecap="round" stroke-linejoin="round"/>
</svg>
