<svg width="34" height="34" viewBox="0 0 34 34" fill="none" xmlns="http://www.w3.org/2000/svg">
<g filter="url(#filter0_d_19_1451)">
<path d="M13 14L16 17L21 10M29 13C29 14.6907 28.16 16.1867 26.876 17.0907C27.0143 17.881 26.9602 18.6931 26.7181 19.4581C26.476 20.2231 26.0532 20.9184 25.4853 21.4853C24.9184 22.0532 24.2231 22.476 23.4581 22.7181C22.6931 22.9602 21.881 23.0143 21.0907 22.876C20.6296 23.5326 20.0171 24.0685 19.3051 24.4382C18.593 24.808 17.8023 25.0006 17 25C15.3093 25 13.8133 24.16 12.9093 22.876C12.119 23.0142 11.3069 22.96 10.542 22.7179C9.77702 22.4759 9.08163 22.0531 8.51467 21.4853C7.94683 20.9184 7.52397 20.2231 7.2819 19.4581C7.03982 18.6931 6.98566 17.881 7.124 17.0907C6.46736 16.6296 5.9315 16.0171 5.56177 15.3051C5.19204 14.593 4.99935 13.8023 5 13C5 11.3093 5.84 9.81333 7.124 8.90933C6.98566 8.11898 7.03982 7.30692 7.2819 6.54193C7.52397 5.77695 7.94683 5.08156 8.51467 4.51467C9.08163 3.94693 9.77702 3.52413 10.542 3.28206C11.3069 3.03999 12.119 2.98577 12.9093 3.124C13.3705 2.46744 13.983 1.93164 14.695 1.56192C15.4071 1.1922 16.1977 0.999459 17 1C18.6907 1 20.1867 1.84 21.0907 3.124C21.881 2.98577 22.693 3.03999 23.458 3.28206C24.223 3.52413 24.9184 3.94693 25.4853 4.51467C26.0531 5.08163 26.4759 5.77702 26.7179 6.54198C26.96 7.30695 27.0142 8.11898 26.876 8.90933C27.5326 9.37038 28.0685 9.98287 28.4382 10.6949C28.808 11.407 29.0007 12.1977 29 13Z" stroke="#732E1F" stroke-width="1.5" stroke-linecap="round" stroke-linejoin="round" shape-rendering="crispEdges"/>
</g>
<defs>
<filter id="filter0_d_19_1451" x="0.25" y="0.25" width="33.5" height="33.5" filterUnits="userSpaceOnUse" color-interpolation-filters="sRGB">
<feFlood flood-opacity="0" result="BackgroundImageFix"/>
<feColorMatrix in="SourceAlpha" type="matrix" values="0 0 0 0 0 0 0 0 0 0 0 0 0 0 0 0 0 0 127 0" result="hardAlpha"/>
<feOffset dy="4"/>
<feGaussianBlur stdDeviation="2"/>
<feComposite in2="hardAlpha" operator="out"/>
<feColorMatrix type="matrix" values="0 0 0 0 0 0 0 0 0 0 0 0 0 0 0 0 0 0 0.25 0"/>
<feBlend mode="normal" in2="BackgroundImageFix" result="effect1_dropShadow_19_1451"/>
<feBlend mode="normal" in="SourceGraphic" in2="effect1_dropShadow_19_1451" result="shape"/>
</filter>
</defs>
</svg>
