<svg width="27" height="30" viewBox="0 0 27 30" fill="none" xmlns="http://www.w3.org/2000/svg">
<path d="M22.7812 9.375L22.0781 22.665C22.0402 23.3813 21.7574 24.0544 21.2874 24.5466C20.8175 25.0388 20.196 25.3128 19.5503 25.3125H7.44975C6.80396 25.3128 6.18249 25.0388 5.71256 24.5466C5.24262 24.0544 4.95976 23.3813 4.92188 22.665L4.21875 9.375M11.25 14.0625H15.75M3.79688 9.375H23.2031C23.9017 9.375 24.4688 8.745 24.4688 7.96875V6.09375C24.4688 5.3175 23.9017 4.6875 23.2031 4.6875H3.79688C3.09825 4.6875 2.53125 5.3175 2.53125 6.09375V7.96875C2.53125 8.745 3.09825 9.375 3.79688 9.375Z" stroke="#D99191" stroke-width="1.5" stroke-linecap="round" stroke-linejoin="round"/>
</svg>
