<svg width="22" height="22" viewBox="0 0 22 22" fill="none" xmlns="http://www.w3.org/2000/svg">
<path d="M1 5.5C1 13.784 7.716 20.5 16 20.5H18.25C18.8467 20.5 19.419 20.2629 19.841 19.841C20.2629 19.419 20.5 18.8467 20.5 18.25V16.878C20.5 16.362 20.149 15.912 19.648 15.787L15.225 14.681C14.785 14.571 14.323 14.736 14.052 15.098L13.082 16.391C12.8 16.767 12.313 16.933 11.872 16.771C10.2349 16.1691 8.74815 15.2186 7.51478 13.9852C6.28141 12.7518 5.33087 11.2651 4.729 9.628C4.567 9.187 4.733 8.7 5.109 8.418L6.402 7.448C6.765 7.177 6.929 6.714 6.819 6.275L5.713 1.852C5.65214 1.60869 5.51172 1.3927 5.31405 1.23834C5.11638 1.08397 4.8728 1.00008 4.622 1H3.25C2.65326 1 2.08097 1.23705 1.65901 1.65901C1.23705 2.08097 1 2.65326 1 3.25V5.5Z" stroke="black" stroke-width="1.5" stroke-linecap="round" stroke-linejoin="round"/>
</svg>
